<?xml version="1.0" encoding="UTF-8" standalone="no"?>
<!-- Created with Inkscape (http://www.inkscape.org/) -->

<svg
   xmlns:dc="http://purl.org/dc/elements/1.1/"
   xmlns:cc="http://creativecommons.org/ns#"
   xmlns:rdf="http://www.w3.org/1999/02/22-rdf-syntax-ns#"
   xmlns:svg="http://www.w3.org/2000/svg"
   xmlns="http://www.w3.org/2000/svg"
   xmlns:sodipodi="http://sodipodi.sourceforge.net/DTD/sodipodi-0.dtd"
   xmlns:inkscape="http://www.inkscape.org/namespaces/inkscape"
   width="210mm"
   height="297mm"
   viewBox="0 0 744.09448819 1052.3622047"
   id="svg2"
   version="1.1"
   inkscape:version="0.91 r13725"
   sodipodi:docname="kmeans_badINputSampleDensity.svg">
  <defs
     id="defs4">
    <inkscape:perspective
       sodipodi:type="inkscape:persp3d"
       inkscape:vp_x="175.76654 : 340.31303 : 1"
       inkscape:vp_y="0 : 1000 : 0"
       inkscape:vp_z="-655.97695 : 902.96801 : 1"
       inkscape:persp3d-origin="372.04724 : 350.7874 : 1"
       id="perspective3336" />
  </defs>
  <sodipodi:namedview
     id="base"
     pagecolor="#ffffff"
     bordercolor="#666666"
     borderopacity="1.0"
     inkscape:pageopacity="0.0"
     inkscape:pageshadow="2"
     inkscape:zoom="1"
     inkscape:cx="-230.69007"
     inkscape:cy="808.6587"
     inkscape:document-units="px"
     inkscape:current-layer="layer1"
     showgrid="false"
     inkscape:window-width="1920"
     inkscape:window-height="1137"
     inkscape:window-x="-8"
     inkscape:window-y="-8"
     inkscape:window-maximized="1" />
  <metadata
     id="metadata7">
    <rdf:RDF>
      <cc:Work
         rdf:about="">
        <dc:format>image/svg+xml</dc:format>
        <dc:type
           rdf:resource="http://purl.org/dc/dcmitype/StillImage" />
        <dc:title />
      </cc:Work>
    </rdf:RDF>
  </metadata>
  <g
     inkscape:label="Vrstva 1"
     inkscape:groupmode="layer"
     id="layer1">
    <rect
       style="fill:#aad400;fill-opacity:1;stroke:#000000"
       id="rect7986-5"
       width="13.5"
       height="13.5"
       x="174.55527"
       y="-111.78406"
       transform="matrix(0.04380422,0.99904013,-0.99904013,0.04380422,0,0)" />
    <rect
       style="fill:#aad400;fill-opacity:1;stroke:#000000"
       id="rect7986-5-8"
       width="13.5"
       height="13.5"
       x="158.55527"
       y="-106.28407"
       transform="matrix(0.04380422,0.99904013,-0.99904013,0.04380422,0,0)" />
    <rect
       style="fill:#aad400;fill-opacity:1;stroke:#000000"
       id="rect7986-5-6"
       width="13.5"
       height="13.5"
       x="174.55527"
       y="-94.284073"
       transform="matrix(0.04380422,0.99904013,-0.99904013,0.04380422,0,0)" />
    <rect
       style="fill:#aad400;fill-opacity:1;stroke:#000000"
       id="rect7986-5-10"
       width="13.5"
       height="13.5"
       x="192.55527"
       y="-127.28407"
       transform="matrix(0.04380422,0.99904013,-0.99904013,0.04380422,0,0)" />
    <rect
       style="fill:#aad400;fill-opacity:1;stroke:#000000"
       id="rect7986-5-5"
       width="13.5"
       height="13.5"
       x="176.55527"
       y="-135.28407"
       transform="matrix(0.04380422,0.99904013,-0.99904013,0.04380422,0,0)" />
    <rect
       style="fill:#aad400;fill-opacity:1;stroke:#000000"
       id="rect7986-5-0"
       width="13.5"
       height="13.5"
       x="138.55527"
       y="-89.284073"
       transform="matrix(0.04380422,0.99904013,-0.99904013,0.04380422,0,0)" />
    <rect
       style="fill:#aad400;fill-opacity:1;stroke:#000000"
       id="rect7986-5-23"
       width="13.5"
       height="13.5"
       x="161.55527"
       y="-79.284058"
       transform="matrix(0.04380422,0.99904013,-0.99904013,0.04380422,0,0)" />
    <rect
       style="fill:#aad400;fill-opacity:1;stroke:#000000"
       id="rect7986-5-58"
       width="13.5"
       height="13.5"
       x="192.55527"
       y="-77.284058"
       transform="matrix(0.04380422,0.99904013,-0.99904013,0.04380422,0,0)" />
    <rect
       style="fill:#aad400;fill-opacity:1;stroke:#000000"
       id="rect7986-5-09"
       width="13.5"
       height="13.5"
       x="226.55527"
       y="-113.28407"
       transform="matrix(0.04380422,0.99904013,-0.99904013,0.04380422,0,0)" />
    <rect
       style="fill:#aad400;fill-opacity:1;stroke:#000000"
       id="rect7986-5-63"
       width="13.5"
       height="13.5"
       x="213.55527"
       y="-140.28407"
       transform="matrix(0.04380422,0.99904013,-0.99904013,0.04380422,0,0)" />
    <rect
       style="fill:#aad400;fill-opacity:1;stroke:#000000"
       id="rect7986-5-585"
       width="13.5"
       height="13.5"
       x="178.55527"
       y="-159.28407"
       transform="matrix(0.04380422,0.99904013,-0.99904013,0.04380422,0,0)" />
    <rect
       style="fill:#aad400;fill-opacity:1;stroke:#000000"
       id="rect7986-5-84"
       width="13.5"
       height="13.5"
       x="133.55527"
       y="-149.28407"
       transform="matrix(0.04380422,0.99904013,-0.99904013,0.04380422,0,0)" />
    <rect
       style="fill:#aad400;fill-opacity:1;stroke:#000000"
       id="rect7986-5-55"
       width="13.5"
       height="13.5"
       x="116.55527"
       y="-99.284073"
       transform="matrix(0.04380422,0.99904013,-0.99904013,0.04380422,0,0)" />
    <rect
       style="fill:#aad400;fill-opacity:1;stroke:#000000"
       id="rect7986-5-9"
       width="13.5"
       height="13.5"
       x="142.55527"
       y="-65.284058"
       transform="matrix(0.04380422,0.99904013,-0.99904013,0.04380422,0,0)" />
    <rect
       style="fill:#aad400;fill-opacity:1;stroke:#000000"
       id="rect7986-5-20"
       width="13.5"
       height="13.5"
       x="185.55527"
       y="-48.284061"
       transform="matrix(0.04380422,0.99904013,-0.99904013,0.04380422,0,0)" />
    <rect
       style="fill:#aad400;fill-opacity:1;stroke:#000000"
       id="rect7986-5-61"
       width="13.5"
       height="13.5"
       x="233.55527"
       y="-65.284058"
       transform="matrix(0.04380422,0.99904013,-0.99904013,0.04380422,0,0)" />
    <rect
       style="fill:#aad400;fill-opacity:1;stroke:#000000"
       id="rect7986-5-36"
       width="13.5"
       height="13.5"
       x="251.55527"
       y="-83.284058"
       transform="matrix(0.04380422,0.99904013,-0.99904013,0.04380422,0,0)" />
    <rect
       style="fill:#aad400;fill-opacity:1;stroke:#000000"
       id="rect7986-5-95"
       width="13.5"
       height="13.5"
       x="251.55527"
       y="-128.28407"
       transform="matrix(0.04380422,0.99904013,-0.99904013,0.04380422,0,0)" />
    <rect
       style="fill:#aad400;fill-opacity:1;stroke:#000000"
       id="rect7986-5-87"
       width="13.5"
       height="13.5"
       x="143.55527"
       y="-65.284058"
       transform="matrix(0.04380422,0.99904013,-0.99904013,0.04380422,0,0)" />
    <rect
       style="fill:#aad400;fill-opacity:1;stroke:#000000"
       id="rect7986-5-53"
       width="13.5"
       height="13.5"
       x="223.55527"
       y="-44.284061"
       transform="matrix(0.04380422,0.99904013,-0.99904013,0.04380422,0,0)" />
    <rect
       style="fill:#aad400;fill-opacity:1;stroke:#000000"
       id="rect7986-5-16"
       width="13.5"
       height="13.5"
       x="216.55527"
       y="-103.28407"
       transform="matrix(0.04380422,0.99904013,-0.99904013,0.04380422,0,0)" />
    <rect
       style="fill:#aad400;fill-opacity:1;stroke:#000000"
       id="rect7986-5-19"
       width="13.5"
       height="13.5"
       x="202.55527"
       y="-152.28407"
       transform="matrix(0.04380422,0.99904013,-0.99904013,0.04380422,0,0)" />
    <rect
       style="fill:#aad400;fill-opacity:1;stroke:#000000"
       id="rect7986-5-81"
       width="13.5"
       height="13.5"
       x="206.55527"
       y="-172.28407"
       transform="matrix(0.04380422,0.99904013,-0.99904013,0.04380422,0,0)" />
    <rect
       style="fill:#aad400;fill-opacity:1;stroke:#000000"
       id="rect7986-5-34"
       width="13.5"
       height="13.5"
       x="240.55527"
       y="-171.28407"
       transform="matrix(0.04380422,0.99904013,-0.99904013,0.04380422,0,0)" />
    <rect
       style="fill:#aad400;fill-opacity:1;stroke:#000000"
       id="rect7986-5-15"
       width="13.5"
       height="13.5"
       x="276.55527"
       y="-119.28407"
       transform="matrix(0.04380422,0.99904013,-0.99904013,0.04380422,0,0)" />
    <rect
       style="fill:#aad400;fill-opacity:1;stroke:#000000"
       id="rect7986-5-35"
       width="13.5"
       height="13.5"
       x="279.55527"
       y="-87.284058"
       transform="matrix(0.04380422,0.99904013,-0.99904013,0.04380422,0,0)" />
    <rect
       style="fill:#aad400;fill-opacity:1;stroke:#000000"
       id="rect7986-5-66"
       width="13.5"
       height="13.5"
       x="268.55527"
       y="-74.284058"
       transform="matrix(0.04380422,0.99904013,-0.99904013,0.04380422,0,0)" />
    <rect
       style="fill:#aad400;fill-opacity:1;stroke:#000000"
       id="rect7986-5-67"
       width="13.5"
       height="13.5"
       x="215.55527"
       y="-63.284061"
       transform="matrix(0.04380422,0.99904013,-0.99904013,0.04380422,0,0)" />
    <rect
       style="fill:#aad400;fill-opacity:1;stroke:#000000"
       id="rect7986-5-071"
       width="13.5"
       height="13.5"
       x="163.55527"
       y="-149.28407"
       transform="matrix(0.04380422,0.99904013,-0.99904013,0.04380422,0,0)" />
    <rect
       style="fill:#aad400;fill-opacity:1;stroke:#000000"
       id="rect7986-5-94"
       width="13.5"
       height="13.5"
       x="259.55527"
       y="-162.28407"
       transform="matrix(0.04380422,0.99904013,-0.99904013,0.04380422,0,0)" />
    <rect
       style="fill:#aad400;fill-opacity:1;stroke:#000000"
       id="rect7986-5-62"
       width="13.5"
       height="13.5"
       x="285.55527"
       y="-127.28407"
       transform="matrix(0.04380422,0.99904013,-0.99904013,0.04380422,0,0)" />
    <rect
       style="fill:#aad400;fill-opacity:1;stroke:#000000"
       id="rect7986-5-46"
       width="13.5"
       height="13.5"
       x="275.55527"
       y="-100.28407"
       transform="matrix(0.04380422,0.99904013,-0.99904013,0.04380422,0,0)" />
    <rect
       style="fill:#aad400;fill-opacity:1;stroke:#000000"
       id="rect7986-5-794"
       width="13.5"
       height="13.5"
       x="215.55527"
       y="-191.28407"
       transform="matrix(0.04380422,0.99904013,-0.99904013,0.04380422,0,0)" />
    <rect
       style="fill:#aad400;fill-opacity:1;stroke:#000000"
       id="rect7986-5-50"
       width="13.5"
       height="13.5"
       x="179.55527"
       y="-187.28407"
       transform="matrix(0.04380422,0.99904013,-0.99904013,0.04380422,0,0)" />
    <rect
       style="fill:#aad400;fill-opacity:1;stroke:#000000"
       id="rect7986-5-54"
       width="13.5"
       height="13.5"
       x="148.55527"
       y="-157.28407"
       transform="matrix(0.04380422,0.99904013,-0.99904013,0.04380422,0,0)" />
    <rect
       style="fill:#aad400;fill-opacity:1;stroke:#000000"
       id="rect7986-5-531"
       width="13.5"
       height="13.5"
       x="199.55527"
       y="-121.28407"
       transform="matrix(0.04380422,0.99904013,-0.99904013,0.04380422,0,0)" />
    <rect
       style="fill:#aad400;fill-opacity:1;stroke:#000000"
       id="rect7986-5-18"
       width="13.5"
       height="13.5"
       x="215.55527"
       y="-86.284058"
       transform="matrix(0.04380422,0.99904013,-0.99904013,0.04380422,0,0)" />
    <rect
       style="fill:#d40055;fill-opacity:1;stroke:#000000"
       id="rect7986-118-9"
       width="13.5"
       height="13.5"
       x="236.1597"
       y="-251.50389"
       transform="matrix(0.04380422,0.99904013,-0.99904013,0.04380422,0,0)" />
    <rect
       style="fill:#d40055;fill-opacity:1;stroke:#000000"
       id="rect7986-118-6"
       width="13.5"
       height="13.5"
       x="233.1597"
       y="-259.50388"
       transform="matrix(0.04380422,0.99904013,-0.99904013,0.04380422,0,0)" />
    <rect
       style="fill:#d40055;fill-opacity:1;stroke:#000000"
       id="rect7986-118-1"
       width="13.5"
       height="13.5"
       x="228.1597"
       y="-270.50388"
       transform="matrix(0.04380422,0.99904013,-0.99904013,0.04380422,0,0)" />
    <rect
       style="fill:#d40055;fill-opacity:1;stroke:#000000"
       id="rect7986-118-2"
       width="13.5"
       height="13.5"
       x="235.1597"
       y="-281.50388"
       transform="matrix(0.04380422,0.99904013,-0.99904013,0.04380422,0,0)" />
    <rect
       style="fill:#d40055;fill-opacity:1;stroke:#000000"
       id="rect7986-118-0"
       width="13.5"
       height="13.5"
       x="245.1597"
       y="-287.50388"
       transform="matrix(0.04380422,0.99904013,-0.99904013,0.04380422,0,0)" />
    <rect
       style="fill:#d40055;fill-opacity:1;stroke:#000000"
       id="rect7986-118-8"
       width="13.5"
       height="13.5"
       x="262.1597"
       y="-290.50388"
       transform="matrix(0.04380422,0.99904013,-0.99904013,0.04380422,0,0)" />
    <rect
       style="fill:#d40055;fill-opacity:1;stroke:#000000"
       id="rect7986-118-3"
       width="13.5"
       height="13.5"
       x="266.1597"
       y="-284.50388"
       transform="matrix(0.04380422,0.99904013,-0.99904013,0.04380422,0,0)" />
    <rect
       style="fill:#d40055;fill-opacity:1;stroke:#000000"
       id="rect7986-118-09"
       width="13.5"
       height="13.5"
       x="271.1597"
       y="-275.50388"
       transform="matrix(0.04380422,0.99904013,-0.99904013,0.04380422,0,0)" />
    <rect
       style="fill:#d40055;fill-opacity:1;stroke:#000000"
       id="rect7986-118-19"
       width="13.5"
       height="13.5"
       x="273.1597"
       y="-266.50388"
       transform="matrix(0.04380422,0.99904013,-0.99904013,0.04380422,0,0)" />
    <rect
       style="fill:#d40055;fill-opacity:1;stroke:#000000"
       id="rect7986-118-4"
       width="13.5"
       height="13.5"
       x="271.1597"
       y="-257.50388"
       transform="matrix(0.04380422,0.99904013,-0.99904013,0.04380422,0,0)" />
    <rect
       style="fill:#d40055;fill-opacity:1;stroke:#000000"
       id="rect7986-118-97"
       width="13.5"
       height="13.5"
       x="265.1597"
       y="-251.50389"
       transform="matrix(0.04380422,0.99904013,-0.99904013,0.04380422,0,0)" />
    <rect
       style="fill:#d40055;fill-opacity:1;stroke:#000000"
       id="rect7986-118-98"
       width="13.5"
       height="13.5"
       x="252.1597"
       y="-268.50388"
       transform="matrix(0.04380422,0.99904013,-0.99904013,0.04380422,0,0)" />
    <rect
       style="fill:#d40055;fill-opacity:1;stroke:#000000"
       id="rect7986-118-31"
       width="13.5"
       height="13.5"
       x="254.24731"
       y="-278.50195"
       transform="matrix(0.04380422,0.99904013,-0.99904013,0.04380422,0,0)" />
    <rect
       style="fill:#d40055;fill-opacity:1;stroke:#000000"
       id="rect7986-118-29"
       width="13.5"
       height="13.5"
       x="230.94818"
       y="-294.4866"
       transform="matrix(0.04380422,0.99904013,-0.99904013,0.04380422,0,0)" />
    <rect
       style="fill:#d40055;fill-opacity:1;stroke:#000000"
       id="rect7986-118-35"
       width="13.5"
       height="13.5"
       x="237.1597"
       y="-254.50388"
       transform="matrix(0.04380422,0.99904013,-0.99904013,0.04380422,0,0)" />
    <rect
       style="fill:#d40055;fill-opacity:1;stroke:#000000"
       id="rect7986-118-93"
       width="13.5"
       height="13.5"
       x="260.1597"
       y="-250.50389"
       transform="matrix(0.04380422,0.99904013,-0.99904013,0.04380422,0,0)" />
    <rect
       style="fill:#d40055;fill-opacity:1;stroke:#000000"
       id="rect7986-118-45"
       width="13.5"
       height="13.5"
       x="248.27322"
       y="-250.68468"
       transform="matrix(0.04380422,0.99904013,-0.99904013,0.04380422,0,0)" />
    <rect
       style="fill:#d40055;fill-opacity:1;stroke:#000000"
       id="rect7986-118-096"
       width="13.5"
       height="13.5"
       x="278.20255"
       y="-288.45911"
       transform="matrix(0.04380422,0.99904013,-0.99904013,0.04380422,0,0)" />
    <rect
       style="fill:#00afd4;fill-opacity:1;stroke:#000000"
       id="rect7986-118-9-8"
       width="13.5"
       height="13.5"
       x="142.33046"
       y="-254.55066"
       transform="matrix(0.04380422,0.99904013,-0.99904013,0.04380422,0,0)" />
    <rect
       style="fill:#00afd4;fill-opacity:1;stroke:#000000"
       id="rect7986-118-6-5"
       width="13.5"
       height="13.5"
       x="139.33046"
       y="-262.55066"
       transform="matrix(0.04380422,0.99904013,-0.99904013,0.04380422,0,0)" />
    <rect
       style="fill:#00afd4;fill-opacity:1;stroke:#000000"
       id="rect7986-118-1-8"
       width="13.5"
       height="13.5"
       x="134.33047"
       y="-273.55066"
       transform="matrix(0.04380422,0.99904013,-0.99904013,0.04380422,0,0)" />
    <rect
       style="fill:#00afd4;fill-opacity:1;stroke:#000000"
       id="rect7986-118-2-4"
       width="13.5"
       height="13.5"
       x="141.33046"
       y="-284.55066"
       transform="matrix(0.04380422,0.99904013,-0.99904013,0.04380422,0,0)" />
    <rect
       style="fill:#00afd4;fill-opacity:1;stroke:#000000"
       id="rect7986-118-0-8"
       width="13.5"
       height="13.5"
       x="151.33046"
       y="-290.55066"
       transform="matrix(0.04380422,0.99904013,-0.99904013,0.04380422,0,0)" />
    <rect
       style="fill:#00afd4;fill-opacity:1;stroke:#000000"
       id="rect7986-118-8-1"
       width="13.5"
       height="13.5"
       x="168.33046"
       y="-293.55066"
       transform="matrix(0.04380422,0.99904013,-0.99904013,0.04380422,0,0)" />
    <rect
       style="fill:#00afd4;fill-opacity:1;stroke:#000000"
       id="rect7986-118-3-3"
       width="13.5"
       height="13.5"
       x="172.33046"
       y="-287.55066"
       transform="matrix(0.04380422,0.99904013,-0.99904013,0.04380422,0,0)" />
    <rect
       style="fill:#00afd4;fill-opacity:1;stroke:#000000"
       id="rect7986-118-09-3"
       width="13.5"
       height="13.5"
       x="177.33046"
       y="-278.55063"
       transform="matrix(0.04380422,0.99904013,-0.99904013,0.04380422,0,0)" />
    <rect
       style="fill:#00afd4;fill-opacity:1;stroke:#000000"
       id="rect7986-118-19-9"
       width="13.5"
       height="13.5"
       x="179.33046"
       y="-269.55066"
       transform="matrix(0.04380422,0.99904013,-0.99904013,0.04380422,0,0)" />
    <rect
       style="fill:#00afd4;fill-opacity:1;stroke:#000000"
       id="rect7986-118-4-5"
       width="13.5"
       height="13.5"
       x="177.33046"
       y="-260.55066"
       transform="matrix(0.04380422,0.99904013,-0.99904013,0.04380422,0,0)" />
    <rect
       style="fill:#00afd4;fill-opacity:1;stroke:#000000"
       id="rect7986-118-97-3"
       width="13.5"
       height="13.5"
       x="171.33046"
       y="-254.55066"
       transform="matrix(0.04380422,0.99904013,-0.99904013,0.04380422,0,0)" />
    <rect
       style="fill:#00afd4;fill-opacity:1;stroke:#000000"
       id="rect7986-118-98-5"
       width="13.5"
       height="13.5"
       x="158.33046"
       y="-271.55066"
       transform="matrix(0.04380422,0.99904013,-0.99904013,0.04380422,0,0)" />
    <rect
       style="fill:#00afd4;fill-opacity:1;stroke:#000000"
       id="rect7986-118-31-2"
       width="13.5"
       height="13.5"
       x="160.33046"
       y="-279.55063"
       transform="matrix(0.04380422,0.99904013,-0.99904013,0.04380422,0,0)" />
    <rect
       style="fill:#00afd4;fill-opacity:1;stroke:#000000"
       id="rect7986-118-29-9"
       width="13.5"
       height="13.5"
       x="136.33046"
       y="-279.55063"
       transform="matrix(0.04380422,0.99904013,-0.99904013,0.04380422,0,0)" />
    <rect
       style="fill:#00afd4;fill-opacity:1;stroke:#000000"
       id="rect7986-118-35-7"
       width="13.5"
       height="13.5"
       x="137.04651"
       y="-296.86365"
       transform="matrix(0.04380422,0.99904013,-0.99904013,0.04380422,0,0)" />
    <rect
       style="fill:#00afd4;fill-opacity:1;stroke:#000000"
       id="rect7986-118-93-0"
       width="13.5"
       height="13.5"
       x="166.33046"
       y="-253.55066"
       transform="matrix(0.04380422,0.99904013,-0.99904013,0.04380422,0,0)" />
    <rect
       style="fill:#00afd4;fill-opacity:1;stroke:#000000"
       id="rect7986-118-45-1"
       width="13.5"
       height="13.5"
       x="181.33046"
       y="-250.55066"
       transform="matrix(0.04380422,0.99904013,-0.99904013,0.04380422,0,0)" />
    <rect
       style="fill:#00afd4;fill-opacity:1;stroke:#000000"
       id="rect7986-118-096-0"
       width="13.5"
       height="13.5"
       x="179.59712"
       y="-296.72009"
       transform="matrix(0.04380422,0.99904013,-0.99904013,0.04380422,0,0)" />
  </g>
</svg>
